<?xml version="1.0" encoding="UTF-8"?>
<svg id="Layer_1" data-name="Layer 1" xmlns="http://www.w3.org/2000/svg" xmlns:xlink="http://www.w3.org/1999/xlink" viewBox="0 0 48.86 48.86">
  <defs>
    <style>
      .cls-1 {
        fill: #133c3e;
      }

      .cls-2 {
        fill: #fff;
      }

      .cls-3 {
        fill: none;
        stroke: #4b78bc;
        stroke-miterlimit: 10;
        stroke-width: 6px;
      }

      .cls-4 {
        fill: url(#linear-gradient);
      }
    </style>
    <linearGradient id="linear-gradient" x1="6.29" y1="20.39" x2="38.25" y2="20.39" gradientTransform="translate(0 47.43) scale(1 -1)" gradientUnits="userSpaceOnUse">
      <stop offset="0" stop-color="#3290cf"/>
      <stop offset="0" stop-color="#3290cf"/>
      <stop offset=".28" stop-color="#3290cf"/>
      <stop offset=".67" stop-color="#516ab2"/>
      <stop offset=".89" stop-color="#516ab2"/>
      <stop offset="1" stop-color="#516ab2"/>
    </linearGradient>
  </defs>
  <circle class="cls-2" cx="24.43" cy="24.43" r="24.43"/>
  <g>
    <path class="cls-1" d="m30.17,23.72c.15-2.91,2.59-5,4.68-6.72,1.19-.99,2.44-1.91,3.64-2.89.6-.49,1.22-.97,1.78-1.5.25-.23.49-.47.73-.7.11-.1.5-.69.66-.63.15.06-.16,1.8-.2,2.03-.12.73-.24,1.46-.46,2.17-.25.8-.7,1.09-1.37,1.53-.62.41-1.26.81-1.88,1.22-1.27.85-2.52,1.72-3.68,2.71-.99.85-2.06,2.01-2.42,3.31-.2.73-.19,1.46-.04,2.2.08.37.22.73.41,1.06.11.19.51.57.51.79,0,.38-.41-.17-.49-.28-.23-.31-.46-.62-.68-.94-.46-.69-.86-1.41-1.04-2.22-.08-.38-.12-.77-.17-1.15h.02Z"/>
    <path class="cls-1" d="m27.59,40.98c-.4.35-.78.71-1.14,1.1-.16.17-.35.6-.56.69-.27.11-.18-.17-.11-.32.25-.64.28-1.45.39-2.13.11-.7.21-1.44.47-2.11.22-.59.89-.94,1.39-1.28,1.31-.89,2.65-1.73,3.94-2.65,1.29-.91,2.63-2,3.36-3.43.77-1.51.68-3.49-.3-4.9-.07-.1-.13-.2-.11-.34.21,0,.44.39.54.53.24.32.46.65.68.98.39.59.73,1.23.93,1.92.4,1.39.18,2.79-.56,4.03-1.55,2.6-4.29,4.32-6.65,6.11-.77.58-1.55,1.17-2.27,1.81h0Z"/>
    <path class="cls-1" d="m24.01,20.69c.16-.75.61-1.37,1.25-1.79.3-.2.58-.28.77-.6.24-.39.41-.79.72-1.13.56-.64,1.44-1.08,2.3-.95.9.14,1.73.59,2.48,1.08.3.19.88.47,1.09.76.13.18.12.16-.02.32-.15.17-.4.3-.57.46-.63.55-1.15,1.18-1.57,1.9-.23.39-.39.78-.52,1.21-.06.19-.13.36-.17.56-.03.16,0,.54-.09.66-.26.32-.38-.3-.47-.46-.19-.37-.44-.73-.68-1.07-.54-.76-1.23-1.52-2.2-1.68-.43-.07-.88.08-1.27.27-.19.1-.37.21-.53.36-.09.08-.31.39-.46.31-.07-.04-.05-.11-.05-.19v-.02Zm3.83-2.96c0,.25.25.52.5.53.49.02.63-.62.3-.9-.28-.24-.84-.05-.8.37Z"/>
    <path class="cls-1" d="m32.03,25.84c.16-1.98,1.46-3.39,2.93-4.59.81-.66,1.68-1.23,2.56-1.78.84-.53,1.78-.97,2.57-1.57.1-.08.25-.28.4-.17.13.09-.04.39-.06.5-.1.45-.14.94-.2,1.4-.05.35-.2.8-.43,1.08-.28.35-.81.49-1.19.7-1.66.89-3.38,1.89-4.53,3.41-.65.85-.99,1.77-.95,2.84,0,.19.24,1.23-.19.71-.34-.41-.61-1.09-.76-1.6-.09-.31-.13-.62-.16-.93h.01Z"/>
    <path class="cls-1" d="m35.04,28.62c-.02,1.94-1.51,3.44-2.95,4.55-1.58,1.22-3.39,2.1-5,3.26-.09.06-.32.32-.44.18-.09-.1.05-.45.07-.56.09-.45.14-.91.24-1.35.09-.37.15-.77.45-1.05.34-.32.92-.5,1.33-.73,1.66-.92,3.44-2.04,4.46-3.7.27-.44.5-.94.61-1.44.07-.3.09-.61.1-.91,0-.22-.11-.58-.07-.78.11-.54.52.4.61.56.28.53.36,1.05.57,1.6.04.12.03.24.03.37h-.01Z"/>
  </g>
  <path class="cls-3" d="m17.05,13.09v-.16c0-3.99,3.23-7.22,7.22-7.22s7.22,3.23,7.22,7.22v.16"/>
  <path class="cls-4" d="m38.24,13.27c-.23.2-.48.4-.49.42-.28.21-.66.45-.94.67-.45.36-.86.71-1.31,1.07-.55.4-.94.67-1.21.91-.16.14-.41.33-.78.63-.23.18-.49.43-.62.52-.03-.03-.53-.63-1.54-1.17-.53-.28-1.87-.93-2.99-.86-.81.05-1.43.7-1.89,1.06-.39.31-.15.15-.79,1.23-.19.33-1.11.7-1.41,1.08-.57.74-.74,1.9-.74,1.93.03.25,0,.71.17.76.07.03.55.07.92-.23.4-.33.77-.62.84-.66.54-.28.8-.2,1.04-.04,1.1.76,2.13,2.73,2.22,2.83.09.09.5.23.58.28.14.09.11.07.13.1t.02.02c-.02.32-.23.41-.19.69.04.26,1.83,3.6,1.96,3.75.23.28.53.53.67.6.17.09.61-.03.65.18,0,.03-1.02,1.02-2.39,1.98-1.5,1.04-2.97,1.62-3.51,2.17-.1.12-.33.57-.39.77-.05.17-.82,6.53-1,6.86-.03.06-.05.11-.06.14h-15.91c-1.65,0-2.99-1.33-2.99-2.96v-21.94c0-1.63,1.34-2.96,2.99-2.96h27.98c.35,0,.69.06.99.17h0Z"/>
</svg>