<?xml version="1.0" encoding="UTF-8"?>
<svg id="Layer_1" data-name="Layer 1" xmlns="http://www.w3.org/2000/svg" xmlns:xlink="http://www.w3.org/1999/xlink" viewBox="0 0 227.63 161.09">
  <defs>
    <style>
      .cls-1, .cls-2 {
        fill: #133c3e;
      }

      .cls-3 {
        fill: #066;
        font-size: 19px;
      }

      .cls-3, .cls-4 {
        font-family: Cambria, Cambria;
      }

      .cls-5 {
        letter-spacing: 0em;
      }

      .cls-5, .cls-6 {
        font-family: Cambria-Italic, Cambria;
        font-style: italic;
      }

      .cls-7 {
        fill: none;
        stroke: #4b78bc;
        stroke-miterlimit: 10;
        stroke-width: 6px;
      }

      .cls-8 {
        fill: url(#linear-gradient);
      }

      .cls-2 {
        font-size: 37px;
      }
    </style>
    <linearGradient id="linear-gradient" x1="0" y1="50.86" x2="71.7" y2="50.86" gradientUnits="userSpaceOnUse">
      <stop offset="0" stop-color="#3290cf"/>
      <stop offset="0" stop-color="#3290cf"/>
      <stop offset=".28" stop-color="#3290cf"/>
      <stop offset=".67" stop-color="#516ab2"/>
      <stop offset=".89" stop-color="#516ab2"/>
      <stop offset="1" stop-color="#516ab2"/>
    </linearGradient>
  </defs>
  <g>
    <path class="cls-1" d="m53.58,43.41c.33-6.54,5.81-11.22,10.49-15.08,2.68-2.21,5.47-4.28,8.17-6.48,1.35-1.1,2.73-2.17,4-3.36.55-.52,1.1-1.05,1.65-1.57.24-.23,1.12-1.54,1.47-1.4.34.13-.36,4.04-.44,4.55-.27,1.63-.53,3.28-1.03,4.86-.57,1.79-1.57,2.45-3.07,3.44-1.4.92-2.82,1.82-4.22,2.74-2.86,1.9-5.65,3.85-8.25,6.09-2.23,1.92-4.63,4.52-5.42,7.43-.44,1.64-.43,3.28-.08,4.94.18.83.5,1.65.92,2.39.24.42,1.14,1.28,1.14,1.77,0,.86-.92-.39-1.1-.62-.53-.69-1.04-1.39-1.52-2.12-1.03-1.54-1.93-3.16-2.32-4.99-.18-.85-.26-1.72-.39-2.58Z"/>
    <path class="cls-1" d="m47.8,82.14c-.89.78-1.75,1.6-2.56,2.47-.35.38-.78,1.35-1.25,1.54-.61.24-.39-.37-.25-.72.57-1.44.63-3.24.87-4.78.26-1.58.48-3.22,1.04-4.73.5-1.33,2.01-2.11,3.13-2.88,2.93-2.01,5.95-3.89,8.85-5.95,2.89-2.05,5.91-4.48,7.55-7.7,1.72-3.39,1.53-7.82-.66-10.99-.15-.21-.28-.46-.26-.76.47-.02.98.88,1.21,1.19.53.71,1.02,1.47,1.52,2.21.88,1.32,1.64,2.77,2.08,4.3.9,3.11.4,6.26-1.25,9.03-3.47,5.84-9.63,9.69-14.92,13.7-1.72,1.31-3.47,2.63-5.1,4.07h0Z"/>
    <path class="cls-1" d="m39.76,36.6c.35-1.69,1.37-3.07,2.8-4.01.68-.44,1.3-.63,1.73-1.34.53-.87.93-1.76,1.61-2.54,1.25-1.42,3.22-2.42,5.15-2.13,2.02.31,3.89,1.33,5.57,2.43.67.44,1.97,1.05,2.44,1.69.29.39.28.35-.04.71-.34.38-.9.68-1.29,1.02-1.41,1.24-2.58,2.64-3.52,4.26-.51.87-.87,1.75-1.17,2.71-.13.42-.29.82-.38,1.25-.08.36.01,1.22-.2,1.47-.59.71-.86-.67-1.05-1.04-.43-.83-.98-1.64-1.53-2.4-1.22-1.7-2.77-3.41-4.93-3.77-.97-.16-1.98.17-2.85.6-.44.22-.84.47-1.2.8-.2.18-.69.88-1.03.69-.15-.09-.11-.25-.12-.42Zm8.61-6.65c-.01.56.57,1.17,1.12,1.19,1.1.04,1.41-1.39.67-2.02-.64-.55-1.88-.12-1.8.83Z"/>
    <path class="cls-1" d="m57.75,48.17c.36-4.45,3.27-7.62,6.58-10.31,1.82-1.47,3.78-2.76,5.75-4,1.89-1.18,4-2.17,5.77-3.52.22-.17.55-.63.89-.38.29.21-.08.87-.14,1.12-.23,1.01-.31,2.11-.46,3.13-.12.79-.45,1.8-.96,2.42-.63.77-1.81,1.11-2.67,1.57-3.71,1.99-7.58,4.25-10.17,7.65-1.45,1.9-2.23,3.98-2.13,6.38.02.43.53,2.76-.42,1.6-.75-.92-1.38-2.44-1.7-3.58-.19-.69-.3-1.4-.36-2.08Z"/>
    <path class="cls-1" d="m64.51,54.39c-.05,4.35-3.38,7.72-6.61,10.2-3.55,2.73-7.6,4.71-11.22,7.32-.2.14-.71.72-.99.41-.2-.23.1-1,.15-1.26.19-1,.3-2.04.55-3.02.2-.83.35-1.73,1-2.35.76-.73,2.06-1.13,2.97-1.64,3.71-2.07,7.73-4.58,10.01-8.29.61-.99,1.11-2.1,1.37-3.24.15-.67.21-1.36.23-2.05.02-.5-.25-1.29-.15-1.75.26-1.22,1.17.91,1.36,1.27.62,1.18.82,2.36,1.27,3.58.1.26.06.54.07.83Z"/>
  </g>
  <path class="cls-7" d="m24.15,19.57c0-.12,0-.24,0-.37,0-8.95,7.25-16.2,16.2-16.2s16.2,7.25,16.2,16.2c0,.12,0,.24,0,.37"/>
  <text class="cls-2" transform="translate(69.07 69.92) scale(1.39 1)"><tspan class="cls-5" x="0" y="0">t</tspan><tspan class="cls-6" x="12.52" y="0">a</tspan><tspan class="cls-5" x="31.98" y="0">r</tspan><tspan class="cls-6" x="46.79" y="0">ling</tspan><tspan class="cls-4" x="105.82" y="0"> </tspan></text>
  <text class="cls-3" transform="translate(72.24 85.35)"><tspan x="0" y="0">B A G S</tspan></text>
  <path class="cls-8" d="m71.7,19.96c-.51.44-1.07.9-1.11.94-.64.48-1.47,1.01-2.1,1.5-1.02.81-1.93,1.59-2.95,2.4-1.24.89-2.11,1.51-2.72,2.04-.35.32-.93.75-1.75,1.42-.51.41-1.11.95-1.39,1.17-.08-.06-1.2-1.41-3.45-2.62-1.18-.64-4.2-2.08-6.71-1.93-1.82.11-3.21,1.57-4.24,2.38-.88.69-.34.34-1.78,2.76-.43.73-2.49,1.58-3.15,2.43-1.28,1.66-1.66,4.27-1.65,4.34.07.57.01,1.59.38,1.71.16.06,1.23.16,2.05-.52.91-.74,1.74-1.39,1.89-1.47,1.21-.62,1.8-.45,2.33-.09,2.48,1.72,4.78,6.13,4.99,6.35.21.21,1.12.51,1.29.62.32.21.25.15.29.22.02.02.02.03.04.05-.05.72-.52.91-.43,1.54.09.59,4.1,8.08,4.4,8.42.51.63,1.2,1.2,1.5,1.35.39.21,1.37-.06,1.46.4,0,.08-2.28,2.28-5.37,4.45-3.36,2.34-6.67,3.63-7.87,4.88-.23.26-.74,1.29-.89,1.73-.12.39-1.84,14.64-2.25,15.39-.08.14-.12.25-.14.32H6.7c-3.7,0-6.7-2.98-6.7-6.64V26.21c0-3.66,3-6.64,6.7-6.64h62.77c.78,0,1.54.13,2.23.39Z"/>
</svg>