<?xml version="1.0" encoding="UTF-8"?>
<svg id="Layer_1" data-name="Layer 1" xmlns="http://www.w3.org/2000/svg" xmlns:xlink="http://www.w3.org/1999/xlink" viewBox="0 0 156.89 64.39">
  <defs>
    <style>
      .cls-1 {
        fill: #aacfda;
        font-size: 26.86px;
      }

      .cls-2 {
        fill: url(#linear-gradient-2);
      }

      .cls-3 {
        letter-spacing: 0em;
      }

      .cls-3, .cls-4, .cls-5, .cls-6 {
        font-family: Cambria-Italic, Cambria;
        font-style: italic;
      }

      .cls-4 {
        letter-spacing: 0em;
      }

      .cls-5 {
        letter-spacing: 0em;
      }

      .cls-7 {
        fill: #bb7d2b;
        font-size: 10px;
        letter-spacing: .08em;
      }

      .cls-7, .cls-8 {
        font-family: Cambria, Cambria;
      }

      .cls-9 {
        fill: none;
        stroke: url(#linear-gradient-6);
        stroke-miterlimit: 10;
        stroke-width: 6px;
      }

      .cls-8 {
        letter-spacing: 0em;
      }

      .cls-10 {
        fill: url(#linear-gradient-5);
      }

      .cls-11 {
        fill: url(#linear-gradient-7);
      }

      .cls-12 {
        fill: url(#linear-gradient-9);
      }

      .cls-13 {
        fill: url(#linear-gradient-3);
      }

      .cls-14 {
        fill: url(#linear-gradient);
      }

      .cls-15 {
        fill: url(#linear-gradient-4);
      }

      .cls-6 {
        letter-spacing: 0em;
      }

      .cls-16 {
        fill: url(#linear-gradient-8);
      }
    </style>
    <linearGradient id="linear-gradient" x1="39.7" y1="26.58" x2="58.49" y2="26.58" gradientUnits="userSpaceOnUse">
      <stop offset="0" stop-color="#a9b6dd"/>
      <stop offset="1" stop-color="#afcfed"/>
    </linearGradient>
    <linearGradient id="linear-gradient-2" x1="32.45" y1="49.92" x2="51.27" y2="49.92" xlink:href="#linear-gradient"/>
    <linearGradient id="linear-gradient-3" x1="29.67" y1="26.34" x2="43.84" y2="26.34" xlink:href="#linear-gradient"/>
    <linearGradient id="linear-gradient-4" x1="42.73" y1="31.85" x2="56.6" y2="31.85" xlink:href="#linear-gradient"/>
    <linearGradient id="linear-gradient-5" x1="33.92" y1="45.17" x2="47.64" y2="45.17" xlink:href="#linear-gradient"/>
    <linearGradient id="linear-gradient-6" x1="15.33" y1="10.4" x2="44.86" y2="10.4" gradientUnits="userSpaceOnUse">
      <stop offset="0" stop-color="#aacfda"/>
      <stop offset="1" stop-color="#acdccd"/>
    </linearGradient>
    <linearGradient id="linear-gradient-7" x1="53.25" y1="45.65" x2="156.45" y2="45.65" gradientUnits="userSpaceOnUse">
      <stop offset="0" stop-color="#a9b6dd"/>
      <stop offset="1" stop-color="#afcfed"/>
    </linearGradient>
    <linearGradient id="linear-gradient-8" x1="53.84" y1="58.14" x2="87.58" y2="58.14" gradientUnits="userSpaceOnUse">
      <stop offset="0" stop-color="#aacfda"/>
      <stop offset="1" stop-color="#afcfed"/>
    </linearGradient>
    <linearGradient id="linear-gradient-9" x1="-1.37" y1="41.04" x2="55.28" y2="33.08" xlink:href="#linear-gradient-6"/>
  </defs>
  <g>
    <path class="cls-14" d="m39.7,32.86c.24-4.75,4.22-8.14,7.62-10.95,1.95-1.61,3.97-3.11,5.93-4.7.98-.8,1.98-1.58,2.9-2.44.4-.38.8-.76,1.2-1.14.18-.17.81-1.12,1.07-1.02.25.09-.26,2.93-.32,3.3-.2,1.19-.39,2.38-.75,3.53-.41,1.3-1.14,1.78-2.23,2.49-1.02.67-2.05,1.32-3.06,1.99-2.08,1.38-4.1,2.79-5.99,4.42-1.62,1.39-3.36,3.28-3.94,5.4-.32,1.19-.31,2.38-.06,3.59.13.6.36,1.2.67,1.73.18.31.83.93.83,1.28,0,.62-.67-.28-.8-.45-.38-.5-.75-1.01-1.1-1.54-.75-1.12-1.4-2.29-1.69-3.62-.13-.62-.19-1.25-.28-1.87Z"/>
    <path class="cls-2" d="m35.51,60.97c-.65.57-1.27,1.16-1.86,1.79-.25.27-.57.98-.91,1.12-.44.18-.29-.27-.19-.53.41-1.05.45-2.35.64-3.47.19-1.15.35-2.34.76-3.43.36-.97,1.46-1.53,2.27-2.09,2.13-1.46,4.32-2.82,6.42-4.32,2.1-1.49,4.29-3.25,5.48-5.59,1.25-2.46,1.11-5.68-.48-7.98-.11-.16-.2-.33-.19-.55.34-.02.71.64.88.87.39.52.74,1.06,1.1,1.6.64.96,1.19,2.01,1.51,3.12.65,2.26.29,4.54-.91,6.56-2.52,4.24-6.99,7.04-10.83,9.95-1.25.95-2.52,1.91-3.71,2.95h0Z"/>
    <path class="cls-13" d="m29.67,27.91c.25-1.23.99-2.23,2.04-2.91.49-.32.94-.46,1.26-.97.38-.63.67-1.28,1.17-1.84.9-1.03,2.34-1.76,3.74-1.54,1.46.23,2.82.97,4.05,1.77.48.32,1.43.76,1.77,1.23.21.29.2.26-.03.52-.25.27-.66.5-.94.74-1.02.9-1.88,1.92-2.56,3.1-.37.63-.63,1.27-.85,1.97-.1.3-.21.59-.28.91-.05.26.01.88-.14,1.07-.43.52-.62-.49-.76-.75-.31-.6-.71-1.19-1.11-1.74-.88-1.23-2.01-2.47-3.58-2.74-.7-.12-1.44.12-2.07.43-.32.16-.61.34-.87.58-.15.13-.5.64-.75.5-.11-.06-.08-.18-.09-.3Zm6.25-4.83c0,.4.41.85.82.86.8.03,1.03-1.01.49-1.46-.46-.4-1.36-.09-1.3.6Z"/>
    <path class="cls-15" d="m42.73,36.31c.26-3.23,2.37-5.53,4.78-7.48,1.32-1.07,2.74-2,4.18-2.9,1.37-.86,2.9-1.58,4.19-2.56.16-.12.4-.45.65-.28.21.15-.06.63-.1.81-.17.74-.22,1.53-.33,2.27-.09.57-.33,1.3-.69,1.76-.45.56-1.32.81-1.94,1.14-2.7,1.45-5.5,3.08-7.39,5.56-1.05,1.38-1.62,2.89-1.55,4.63.01.32.39,2.01-.31,1.16-.55-.67-1-1.77-1.23-2.6-.14-.5-.21-1.01-.26-1.51Z"/>
    <path class="cls-10" d="m47.64,40.83c-.04,3.15-2.46,5.61-4.8,7.41-2.58,1.98-5.51,3.42-8.15,5.31-.15.1-.52.52-.72.3-.15-.17.07-.73.11-.92.14-.73.22-1.48.4-2.19.15-.6.25-1.25.73-1.71.55-.53,1.49-.82,2.16-1.19,2.7-1.51,5.61-3.32,7.27-6.02.44-.72.81-1.53.99-2.35.11-.49.15-.99.17-1.49.01-.36-.18-.94-.11-1.27.19-.89.85.66.99.92.45.86.59,1.71.92,2.6.07.19.04.39.05.6Z"/>
  </g>
  <path class="cls-9" d="m18.33,16.54c0-.09,0-.18,0-.27,0-6.5,5.27-11.76,11.76-11.76s11.76,5.27,11.76,11.76c0,.09,0,.18,0,.27"/>
  <g>
    <text class="cls-1" transform="translate(50.95 52.1) scale(1.39 1)"><tspan class="cls-5" x="0" y="0">t</tspan><tspan class="cls-4" x="9.09" y="0">a</tspan><tspan class="cls-3" x="23.22" y="0">r</tspan><tspan class="cls-6" x="33.97" y="0">ling</tspan><tspan class="cls-8" x="76.83" y="0"> </tspan></text>
    <g>
      <path class="cls-11" d="m63.27,49.69c-1,.87-1.98,1.52-2.96,1.96-.97.44-2.01.66-3.1.66-1.29,0-2.25-.24-2.88-.71-.63-.47-.95-1.16-.95-2.06,0-.55.11-1.17.33-1.85l2.26-6.81h-2.72l.2-.67c.72-.06,1.29-.17,1.71-.33s.77-.38,1.06-.64c.29-.27.55-.61.79-1.04.24-.43.55-1.05.91-1.88h2.52l-1,3.24h5.79l-.4,1.33h-5.8l-1.75,5.09c-.49,1.42-.73,2.47-.73,3.17,0,.53.16.94.48,1.21s.79.41,1.41.41c.56,0,1.15-.16,1.76-.46.61-.31,1.29-.78,2.02-1.41l1.06.79Z"/>
      <path class="cls-11" d="m78.82,40.2l1.68-.87,1.17.21-2.79,8.91c-.17.52-.29.93-.35,1.21-.06.28-.09.52-.09.7,0,.36.14.62.42.78.28.16.81.26,1.61.31l-.16.64h-5.22l1.15-3.29-.24-.05c-1.17,1.22-2.27,2.12-3.32,2.69-1.05.57-2.15.85-3.32.85-1.34,0-2.38-.36-3.11-1.09-.74-.73-1.1-1.75-1.1-3.06,0-.84.13-1.68.4-2.53.27-.84.67-1.64,1.21-2.4.54-.76,1.19-1.42,1.94-2s1.63-1.04,2.62-1.38c.99-.34,2.07-.51,3.24-.51.75,0,1.47.06,2.15.19.68.13,1.39.35,2.12.68Zm-1.61,3.91c.11-.36.18-.67.22-.93.04-.26.05-.55.05-.85,0-.68-.2-1.18-.6-1.49-.4-.31-1.07-.47-2.01-.47-.51,0-1,.06-1.46.18s-.93.31-1.41.59c-.47.28-.93.64-1.36,1.08-.43.45-.82.99-1.18,1.63-.35.64-.63,1.32-.82,2.05-.19.73-.29,1.44-.29,2.13,0,.91.17,1.59.52,2.04s.93.68,1.74.68c.38,0,.77-.06,1.18-.18.41-.12.86-.35,1.36-.67.5-.33,1.06-.81,1.7-1.45.57-.58,1.02-1.17,1.36-1.74.33-.57.61-1.25.83-2.03l.16-.56Z"/>
      <path class="cls-11" d="m90.51,39.44h1.09l-1.28,3.23.22.05c1.16-1.15,2.28-1.99,3.39-2.54,1.1-.55,2.24-.83,3.4-.83.89,0,1.63.05,2.23.14l-.88,2.94h-1.88c-.1-.46-.25-.8-.46-1.04-.21-.24-.53-.35-.97-.35-.47,0-1.02.17-1.64.52-.62.35-1.25.83-1.9,1.44-.65.61-1.13,1.18-1.45,1.69-.32.52-.57,1.09-.74,1.72l-1.66,5.68h-3.16l2.77-8.96c.26-.82.38-1.45.38-1.88,0-.24-.05-.43-.16-.57-.11-.14-.29-.24-.53-.3-.24-.07-.66-.11-1.24-.14l.2-.7,4.25-.12Z"/>
      <path class="cls-11" d="m107.43,33.34h1.08l-4.75,15.48c-.13.42-.22.74-.25.95-.04.21-.06.4-.06.54,0,.26.06.47.18.62.12.15.31.26.57.34.25.08.67.14,1.26.18l-.15.64h-5.69l4.71-15.06c.12-.38.21-.67.26-.87s.08-.38.11-.55c.02-.17.04-.33.04-.46,0-.26-.07-.46-.2-.6-.13-.14-.33-.23-.58-.29-.25-.06-.7-.1-1.34-.13l.22-.68,4.6-.12Z"/>
      <path class="cls-11" d="m113.89,48.82c-.13.45-.22.77-.25.98-.04.21-.05.38-.05.52,0,.26.06.47.18.62.12.15.31.26.57.34.25.08.67.14,1.26.18l-.16.64h-5.66l2.76-8.84c.16-.51.27-.91.33-1.21s.09-.55.09-.75c0-.25-.05-.45-.16-.59-.1-.14-.28-.25-.52-.32-.24-.07-.66-.11-1.26-.13l.2-.7,4.45-.12h1.08l-2.85,9.38Zm4.51-14.4l-.84,2.54h-3.23l.84-2.54h3.23Z"/>
      <path class="cls-11" d="m135.52,52.1h-5.75l2.32-6.66c.15-.43.29-.9.43-1.42.14-.52.21-.98.21-1.39,0-.62-.15-1.07-.45-1.34-.3-.27-.76-.41-1.4-.41-.51,0-1.06.14-1.65.43-.59.28-1.21.71-1.85,1.27-.65.56-1.19,1.14-1.63,1.72-.44.58-.79,1.29-1.03,2.12l-1.66,5.68h-3.16l2.77-8.96c.06-.2.14-.5.25-.89.1-.39.16-.72.16-.98,0-.24-.05-.43-.16-.57-.1-.14-.28-.24-.53-.3-.25-.07-.67-.11-1.27-.14l.22-.7,4.14-.12h1.04l-1.22,3.41.22.05c1.19-1.21,2.34-2.1,3.45-2.68,1.11-.58,2.21-.87,3.32-.87,1.18,0,2.07.23,2.68.7s.91,1.16.91,2.08c0,.31-.04.66-.12,1.03-.08.37-.17.7-.26.99l-1.53,4.67c-.21.63-.31,1.13-.31,1.5,0,.26.06.47.18.62.12.15.31.26.57.34.25.08.67.14,1.26.18l-.15.64Z"/>
      <path class="cls-11" d="m140.17,53.23c-.23.2-.43.4-.58.6-.16.2-.27.39-.34.57-.07.18-.1.4-.1.66,0,.66.33,1.13.99,1.44s1.65.45,2.97.45c1.2,0,2.21-.15,3.01-.46.8-.31,1.48-.78,2.04-1.41s1.05-1.42,1.47-2.35.85-2.17,1.29-3.73l-.25-.04c-1.18,1.16-2.28,2.01-3.29,2.54s-2.1.8-3.27.8c-1.33,0-2.36-.36-3.09-1.08s-1.1-1.74-1.1-3.07c0-.97.18-1.93.53-2.87.35-.94.85-1.8,1.48-2.56s1.35-1.39,2.14-1.9,1.64-.88,2.53-1.12c.89-.25,1.81-.37,2.77-.37.77,0,1.49.07,2.17.2.68.13,1.37.35,2.06.67l1.68-.87,1.17.21-1.9,6.15c-.13.44-.27.93-.42,1.48l-.47,1.72c-.57,2.06-1.03,3.48-1.37,4.26-.41.9-.9,1.65-1.46,2.26-.52.55-1.14,1.01-1.86,1.38-.72.37-1.55.66-2.49.86-.94.2-2.05.3-3.33.3-4.6,0-6.9-.96-6.9-2.89,0-.49.21-.94.62-1.34.41-.4,1.08-.83,1.99-1.27l1.31.76Zm5.24-2.48c.62,0,1.24-.15,1.85-.46.61-.31,1.27-.79,1.97-1.46.7-.66,1.24-1.3,1.63-1.9s.72-1.36,1-2.26c.27-.9.41-1.68.41-2.35s-.2-1.18-.6-1.49c-.4-.31-1.07-.47-2.01-.47-.51,0-1,.06-1.46.18-.46.12-.93.31-1.41.59-.47.28-.93.64-1.36,1.08-.43.45-.83.99-1.18,1.63-.35.64-.63,1.32-.82,2.05-.19.73-.29,1.44-.29,2.13,0,.91.18,1.59.55,2.04s.94.68,1.72.68Z"/>
    </g>
  </g>
  <g>
    <text class="cls-7" transform="translate(53.25 61.47)"><tspan x="0" y="0">B A G S</tspan></text>
    <g>
      <path class="cls-16" d="m53.84,61.47v-.24c.2-.05.34-.11.41-.17.07-.06.11-.15.13-.27s.03-.3.03-.54v-4.22c0-.22,0-.39-.02-.49-.02-.1-.04-.18-.08-.24-.04-.06-.09-.1-.15-.14-.06-.04-.17-.07-.32-.12v-.24h2.67c.52,0,.93.06,1.25.17s.55.27.7.49c.15.22.23.5.23.84,0,.28-.05.53-.16.74s-.25.38-.43.52-.4.26-.68.38v.04c.44.13.78.34,1.01.62.23.28.34.61.34.99,0,.44-.1.8-.3,1.08s-.47.48-.83.61c-.35.12-.78.19-1.29.19h-2.51Zm2.34-3.68c.49,0,.87-.12,1.14-.36.26-.24.39-.59.39-1.04,0-.22-.04-.41-.11-.56-.07-.15-.17-.27-.3-.35s-.28-.15-.46-.19c-.18-.04-.37-.06-.57-.06-.12,0-.29,0-.49,0s-.35.01-.45.02v2.53h.85Zm-.85,3.21c.24.02.5.03.8.03.43,0,.76-.05.99-.16s.41-.27.51-.48c.11-.21.16-.47.16-.79s-.06-.58-.17-.78-.29-.36-.53-.46-.57-.15-1-.15h-.76v2.78Z"/>
      <path class="cls-16" d="m67.05,61.47v-.24c.16-.03.28-.07.36-.11s.14-.09.18-.16c.04-.07.06-.16.06-.28,0-.11-.01-.23-.04-.36-.03-.13-.06-.27-.11-.43l-.18-.63h-2.28l-.17.48c-.08.24-.14.42-.17.55s-.04.24-.04.34c0,.2.05.34.15.43s.25.15.46.18v.24h-2.08v-.24c.18-.03.34-.13.48-.32s.27-.44.39-.78l2.04-5.41h.77l1.66,5.44c.08.25.15.45.21.58s.13.24.22.31.2.13.35.17v.24h-2.25Zm-1.88-2.64h2.04l-.93-3.15-1.11,3.15Z"/>
      <path class="cls-16" d="m78.46,61.45l-.38.1-.36-.38c-.21.13-.43.23-.66.29s-.5.09-.8.09c-.82,0-1.44-.28-1.86-.85-.42-.56-.62-1.4-.62-2.52,0-.69.11-1.3.34-1.83s.56-.93.98-1.21c.43-.28.93-.42,1.5-.42.3,0,.59.02.87.05.28.03.59.09.93.18v1.34h-.48c-.09-.29-.19-.52-.31-.69-.12-.16-.26-.28-.43-.35-.17-.07-.38-.1-.64-.1-.35,0-.67.11-.93.34s-.47.56-.62,1.01c-.15.44-.22.98-.22,1.61s.06,1.18.19,1.64.31.79.56,1.02c.25.23.55.34.91.34.38,0,.67-.08.85-.25.19-.17.28-.42.28-.77v-.29c0-.29-.02-.5-.05-.63s-.09-.23-.16-.3-.21-.13-.39-.18v-.24h1.97v.24c-.12.04-.21.08-.26.13-.06.05-.1.11-.13.19s-.05.17-.06.28c-.01.11-.02.26-.02.47v1.69Z"/>
      <path class="cls-16" d="m84.14,59.95c.06.29.15.51.26.68s.25.29.43.37c.18.08.4.12.68.12.38,0,.67-.1.88-.3s.31-.49.31-.87c0-.24-.04-.45-.13-.62s-.22-.32-.42-.47-.48-.32-.88-.51c-.38-.19-.68-.37-.9-.55-.22-.18-.39-.38-.5-.59s-.16-.44-.16-.69c0-.36.09-.68.26-.95.17-.27.42-.48.75-.62s.71-.22,1.14-.22c.25,0,.49.01.73.04s.53.08.89.18v1.32h-.48c-.07-.29-.17-.51-.28-.67s-.25-.27-.4-.33c-.15-.06-.35-.1-.6-.1-.21,0-.4.04-.57.12s-.3.2-.4.35c-.1.16-.15.35-.15.56,0,.23.04.43.12.59s.21.31.39.44.44.29.78.46c.42.21.74.4.97.58s.41.38.54.61c.13.23.19.5.19.8,0,.34-.05.63-.16.87-.11.24-.26.43-.45.58-.19.15-.42.25-.68.32-.27.07-.56.1-.87.1-.51,0-1.1-.09-1.77-.26v-1.34h.49Z"/>
    </g>
  </g>
  <path class="cls-12" d="m52.86,15.82c-.37.32-.79.55-.81.58-.46.35-1.07.74-1.53,1.1-.74.59-1.42,1.18-2.16,1.77-.9.65-1.04.81-1.49,1.19-.31.09-.58.58-1.18,1.07-.37.3-1.31,1.5-1.56,1.16-.06-.05-.87-1.02-2.51-1.9-.86-.46-3.05-1.51-4.87-1.4-1.32.08-2.4.93-3.08,1.73-.45.53-.25.25-1.29,2-.31.53-1.71,1.15-2.2,1.77-.93,1.2-1.29,2.88-1.29,3.15-.01.42.12,1.2.39,1.29.12.04.78.07,1.37-.42.66-.54,1.26-1.01,1.37-1.07.88-.45,1.31-.33,1.69-.07,1.8,1.25,3.47,4.45,3.62,4.61.15.15.82.37.94.45.23.15.18.11.21.16.01.02.01.02.03.03-.04.53-.38.66-.31,1.12.07.43,2.98,5.86,3.2,6.12.37.46.87.87,1.09.98.28.15.99-.05,1.06.29,0,.06-1.66,1.66-3.9,3.23-2.44,1.7-4.64,2.89-5.71,3.54-.41.25-.59.91-.64,1.26-.05.29-1.33,10.63-1.64,11.17-.06.1-.09.18-.1.23H5.66c-2.69,0-4.86-2.16-4.86-4.82V20.37c0-2.66,2.18-4.82,4.86-4.82h45.58c.57,0,1.12.09,1.62.28Z"/>
</svg>