<?xml version="1.0" encoding="UTF-8"?>
<svg id="Layer_1" data-name="Layer 1" xmlns="http://www.w3.org/2000/svg" xmlns:xlink="http://www.w3.org/1999/xlink" viewBox="0 0 156.89 64.39">
  <defs>
    <style>
      .cls-1 {
        fill: url(#linear-gradient-2);
      }

      .cls-2 {
        letter-spacing: 0em;
      }

      .cls-2, .cls-3, .cls-4, .cls-5 {
        font-family: Cambria-Italic, Cambria;
        font-style: italic;
      }

      .cls-6 {
        fill: #133c3e;
        font-size: 26.86px;
      }

      .cls-3 {
        letter-spacing: 0em;
      }

      .cls-4 {
        letter-spacing: 0em;
      }

      .cls-7 {
        font-size: 10px;
        letter-spacing: .08em;
      }

      .cls-7, .cls-8 {
        font-family: Cambria, Cambria;
      }

      .cls-7, .cls-9 {
        fill: #bb7d2b;
      }

      .cls-8 {
        letter-spacing: 0em;
      }

      .cls-10 {
        fill: none;
        stroke: url(#linear-gradient);
        stroke-miterlimit: 10;
        stroke-width: 6px;
      }

      .cls-5 {
        letter-spacing: 0em;
      }
    </style>
    <linearGradient id="linear-gradient" x1="15.33" y1="10.4" x2="44.86" y2="10.4" gradientUnits="userSpaceOnUse">
      <stop offset="0" stop-color="#aacfda"/>
      <stop offset="0" stop-color="#aacfda"/>
      <stop offset=".28" stop-color="#aacfda"/>
      <stop offset=".67" stop-color="#516ab2"/>
      <stop offset=".89" stop-color="#516ab2"/>
      <stop offset="1" stop-color="#516ab2"/>
    </linearGradient>
    <linearGradient id="linear-gradient-2" x1=".8" y1="38.26" x2="52.86" y2="38.26" xlink:href="#linear-gradient"/>
  </defs>
  <g>
    <path class="cls-9" d="m39.7,32.86c.24-4.75,4.22-8.14,7.62-10.95,1.95-1.61,3.97-3.11,5.93-4.7.98-.8,1.98-1.58,2.9-2.44.4-.38.8-.76,1.2-1.14.18-.17.81-1.12,1.07-1.02.25.09-.26,2.93-.32,3.3-.2,1.19-.39,2.38-.75,3.53-.41,1.3-1.14,1.78-2.23,2.49-1.02.67-2.05,1.32-3.06,1.99-2.08,1.38-4.1,2.79-5.99,4.42-1.62,1.39-3.36,3.28-3.94,5.4-.32,1.19-.31,2.38-.06,3.59.13.6.36,1.2.67,1.73.18.31.83.93.83,1.28,0,.62-.67-.28-.8-.45-.38-.5-.75-1.01-1.1-1.54-.75-1.12-1.4-2.29-1.69-3.62-.13-.62-.19-1.25-.28-1.87Z"/>
    <path class="cls-9" d="m35.51,60.97c-.65.57-1.27,1.16-1.86,1.79-.25.27-.57.98-.91,1.12-.44.18-.29-.27-.19-.53.41-1.05.45-2.35.64-3.47.19-1.15.35-2.34.76-3.43.36-.97,1.46-1.53,2.27-2.09,2.13-1.46,4.32-2.82,6.42-4.32,2.1-1.49,4.29-3.25,5.48-5.59,1.25-2.46,1.11-5.68-.48-7.98-.11-.16-.2-.33-.19-.55.34-.02.71.64.88.87.39.52.74,1.06,1.1,1.6.64.96,1.19,2.01,1.51,3.12.65,2.26.29,4.54-.91,6.56-2.52,4.24-6.99,7.04-10.83,9.95-1.25.95-2.52,1.91-3.71,2.95h0Z"/>
    <path class="cls-9" d="m29.67,27.91c.25-1.23.99-2.23,2.04-2.91.49-.32.94-.46,1.26-.97.38-.63.67-1.28,1.17-1.84.9-1.03,2.34-1.76,3.74-1.54,1.46.23,2.82.97,4.05,1.77.48.32,1.43.76,1.77,1.23.21.29.2.26-.03.52-.25.27-.66.5-.94.74-1.02.9-1.88,1.92-2.56,3.1-.37.63-.63,1.27-.85,1.97-.1.3-.21.59-.28.91-.05.26.01.88-.14,1.07-.43.52-.62-.49-.76-.75-.31-.6-.71-1.19-1.11-1.74-.88-1.23-2.01-2.47-3.58-2.74-.7-.12-1.44.12-2.07.43-.32.16-.61.34-.87.58-.15.13-.5.64-.75.5-.11-.06-.08-.18-.09-.3Zm6.25-4.83c0,.4.41.85.82.86.8.03,1.03-1.01.49-1.46-.46-.4-1.36-.09-1.3.6Z"/>
    <path class="cls-9" d="m42.73,36.31c.26-3.23,2.37-5.53,4.78-7.48,1.32-1.07,2.74-2,4.18-2.9,1.37-.86,2.9-1.58,4.19-2.56.16-.12.4-.45.65-.28.21.15-.06.63-.1.81-.17.74-.22,1.53-.33,2.27-.09.57-.33,1.3-.69,1.76-.45.56-1.32.81-1.94,1.14-2.7,1.45-5.5,3.08-7.39,5.56-1.05,1.38-1.62,2.89-1.55,4.63.01.32.39,2.01-.31,1.16-.55-.67-1-1.77-1.23-2.6-.14-.5-.21-1.01-.26-1.51Z"/>
    <path class="cls-9" d="m47.64,40.83c-.04,3.15-2.46,5.61-4.8,7.41-2.58,1.98-5.51,3.42-8.15,5.31-.15.1-.52.52-.72.3-.15-.17.07-.73.11-.92.14-.73.22-1.48.4-2.19.15-.6.25-1.25.73-1.71.55-.53,1.49-.82,2.16-1.19,2.7-1.51,5.61-3.32,7.27-6.02.44-.72.81-1.53.99-2.35.11-.49.15-.99.17-1.49.01-.36-.18-.94-.11-1.27.19-.89.85.66.99.92.45.86.59,1.71.92,2.6.07.19.04.39.05.6Z"/>
  </g>
  <path class="cls-10" d="m18.33,16.54c0-.09,0-.18,0-.27,0-6.5,5.27-11.76,11.76-11.76s11.76,5.27,11.76,11.76c0,.09,0,.18,0,.27"/>
  <text class="cls-6" transform="translate(50.95 52.1) scale(1.39 1)"><tspan class="cls-4" x="0" y="0">t</tspan><tspan class="cls-3" x="9.09" y="0">a</tspan><tspan class="cls-2" x="23.22" y="0">r</tspan><tspan class="cls-5" x="33.97" y="0">ling</tspan><tspan class="cls-8" x="76.83" y="0"> </tspan></text>
  <text class="cls-7" transform="translate(53.25 61.47)"><tspan x="0" y="0">B A G S</tspan></text>
  <path class="cls-1" d="m52.86,15.82c-.37.32-.79.55-.81.58-.46.35-1.07.74-1.53,1.1-.74.59-1.42,1.18-2.16,1.77-.9.65-1.04.81-1.49,1.19-.31.09-.58.58-1.18,1.07-.37.3-1.31,1.5-1.56,1.16-.06-.05-.87-1.02-2.51-1.9-.86-.46-3.05-1.51-4.87-1.4-1.32.08-2.4.93-3.08,1.73-.45.53-.25.25-1.29,2-.31.53-1.71,1.15-2.2,1.77-.93,1.2-1.29,2.88-1.29,3.15-.01.42.12,1.2.39,1.29.12.04.78.07,1.37-.42.66-.54,1.26-1.01,1.37-1.07.88-.45,1.31-.33,1.69-.07,1.8,1.25,3.47,4.45,3.62,4.61.15.15.82.37.94.45.23.15.18.11.21.16.01.02.01.02.03.03-.04.53-.38.66-.31,1.12.07.43,2.98,5.86,3.2,6.12.37.46.87.87,1.09.98.28.15.99-.05,1.06.29,0,.06-1.66,1.66-3.9,3.23-2.44,1.7-4.64,2.89-5.71,3.54-.41.25-.59.91-.64,1.26-.05.29-1.33,10.63-1.64,11.17-.06.1-.09.18-.1.23H5.66c-2.69,0-4.86-2.16-4.86-4.82V20.37c0-2.66,2.18-4.82,4.86-4.82h45.58c.57,0,1.12.09,1.62.28Z"/>
</svg>